<svg width="196" height="243" viewBox="0 0 196 243" fill="none" xmlns="http://www.w3.org/2000/svg">
<mask id="path-1-outside-1_296_4" maskUnits="userSpaceOnUse" x="7" y="14" width="174" height="221" fill="black">
<rect fill="white" x="7" y="14" width="174" height="221"/>
<path d="M157.094 68C155.427 67.8333 154.427 61.75 154.094 49.75C154.76 46.4167 156.094 42.0833 158.094 36.75C160.094 31.25 162.927 24.8333 166.594 17.5C167.594 17.1667 168.344 17 168.844 17C171.844 17 173.344 20.0833 173.344 26.25C171.677 28.9167 170.01 31.6667 168.344 34.5C166.677 37.1667 165.094 39.8333 163.594 42.5C159.094 51.1667 156.927 59.6667 157.094 68ZM86.8438 232C61.3438 232 41.5938 225.917 27.5938 213.75C16.0938 203.417 10.3438 190.25 10.3438 174.25C10.3438 156.25 17.7604 141.583 32.5938 130.25C45.9271 119.917 61.1771 114.667 78.3438 114.5C92.6771 114.5 103.927 118.167 112.094 125.5C119.26 132.167 122.844 140.333 122.844 150C122.844 159.833 119.344 168.25 112.344 175.25C104.344 182.917 94.1771 186.75 81.8438 186.75C80.3438 186.75 79.5938 186.5 79.5938 186C79.5938 185 80.3438 184.417 81.8438 184.25C87.1771 183.083 91.9271 181.417 96.0938 179.25C100.427 177.083 104.094 174.25 107.094 170.75C112.76 164.583 115.594 157.417 115.594 149.25C115.594 140.25 112.344 132.917 105.844 127.25C99.1771 121.083 90.3438 118 79.3438 118C64.3438 118 51.1771 122.917 39.8438 132.75C27.5104 143.083 21.3438 156.25 21.3438 172.25C21.3438 187.917 26.0938 200.5 35.5938 210C46.5938 221.667 63.0938 227.5 85.0938 227.5C106.594 227.5 124.594 221.083 139.094 208.25C154.927 194.583 162.844 177.333 162.844 156.5C162.844 141.333 157.01 126.917 145.344 113.25L118.094 85.25C113.094 80.0833 109.427 75 107.094 70C104.927 64.8333 103.844 59.9167 103.844 55.25C103.844 44.9167 107.844 36.6667 115.844 30.5C123.51 24.3333 132.427 21.25 142.594 21.25C146.594 21.25 150.594 21.8333 154.594 23C158.594 24.1667 160.594 25.5833 160.594 27.25C160.594 28.0833 160.094 28.5 159.094 28.5C158.594 28.5 156.594 27.75 153.094 26.25C150.26 25.0833 147.344 24.5 144.344 24.5C136.844 24.5 130.177 27.25 124.344 32.75C118.677 38.4167 115.844 44.9167 115.844 52.25C115.844 60.5833 119.76 68.9167 127.594 77.25L153.094 101C161.26 108.5 167.26 116.667 171.094 125.5C175.094 134.167 177.094 143.333 177.094 153C177.094 175.333 167.51 194.333 148.344 210C130.344 224.667 109.844 232 86.8438 232ZM147.094 150C146.26 150.333 145.844 149.833 145.844 148.5C144.677 140.333 141.344 132 135.844 123.5C135.51 126 135.01 128.833 134.344 132C131.177 132.5 128.344 131.417 125.844 128.75C125.51 128.25 125.094 127.5 124.594 126.5C124.26 125.5 124.094 124.333 124.094 123V121.25C124.094 119.417 124.344 118.167 124.844 117.5C128.344 120 131.26 121 133.594 120.5C129.76 115 125.344 110 120.344 105.5C115.344 100.833 109.927 96.6667 104.094 93C91.9271 85.6667 81.1771 82 71.8438 82C61.8438 82 54.9271 86.1667 51.0938 94.5C52.9271 93.1667 54.7604 92.5 56.5938 92.5C58.5938 92.5 60.5104 93.0833 62.3438 94.25C65.6771 96.5833 67.2604 99.25 67.0938 102.25C64.9271 101.25 62.5938 100.75 60.0938 100.75C55.4271 100.75 52.0104 102.75 49.8438 106.75C48.0104 103.917 47.0938 101.5 47.0938 99.5C47.0938 97 48.2604 93.9167 50.5938 90.25C55.4271 82.25 62.9271 78.25 73.0938 78.25C88.2604 78.25 103.927 85.75 120.094 100.75C128.427 108.083 135.177 115.667 140.344 123.5C145.51 131.167 148.094 139.167 148.094 147.5V148.25C148.094 149.083 147.76 149.667 147.094 150Z"/>
</mask>
<path d="M157.094 68C155.427 67.8333 154.427 61.75 154.094 49.75C154.76 46.4167 156.094 42.0833 158.094 36.75C160.094 31.25 162.927 24.8333 166.594 17.5C167.594 17.1667 168.344 17 168.844 17C171.844 17 173.344 20.0833 173.344 26.25C171.677 28.9167 170.01 31.6667 168.344 34.5C166.677 37.1667 165.094 39.8333 163.594 42.5C159.094 51.1667 156.927 59.6667 157.094 68ZM86.8438 232C61.3438 232 41.5938 225.917 27.5938 213.75C16.0938 203.417 10.3438 190.25 10.3438 174.25C10.3438 156.25 17.7604 141.583 32.5938 130.25C45.9271 119.917 61.1771 114.667 78.3438 114.5C92.6771 114.5 103.927 118.167 112.094 125.5C119.26 132.167 122.844 140.333 122.844 150C122.844 159.833 119.344 168.25 112.344 175.25C104.344 182.917 94.1771 186.75 81.8438 186.75C80.3438 186.75 79.5938 186.5 79.5938 186C79.5938 185 80.3438 184.417 81.8438 184.25C87.1771 183.083 91.9271 181.417 96.0938 179.25C100.427 177.083 104.094 174.25 107.094 170.75C112.76 164.583 115.594 157.417 115.594 149.25C115.594 140.25 112.344 132.917 105.844 127.25C99.1771 121.083 90.3438 118 79.3438 118C64.3438 118 51.1771 122.917 39.8438 132.75C27.5104 143.083 21.3438 156.25 21.3438 172.25C21.3438 187.917 26.0938 200.5 35.5938 210C46.5938 221.667 63.0938 227.5 85.0938 227.5C106.594 227.5 124.594 221.083 139.094 208.25C154.927 194.583 162.844 177.333 162.844 156.5C162.844 141.333 157.01 126.917 145.344 113.25L118.094 85.25C113.094 80.0833 109.427 75 107.094 70C104.927 64.8333 103.844 59.9167 103.844 55.25C103.844 44.9167 107.844 36.6667 115.844 30.5C123.51 24.3333 132.427 21.25 142.594 21.25C146.594 21.25 150.594 21.8333 154.594 23C158.594 24.1667 160.594 25.5833 160.594 27.25C160.594 28.0833 160.094 28.5 159.094 28.5C158.594 28.5 156.594 27.75 153.094 26.25C150.26 25.0833 147.344 24.5 144.344 24.5C136.844 24.5 130.177 27.25 124.344 32.75C118.677 38.4167 115.844 44.9167 115.844 52.25C115.844 60.5833 119.76 68.9167 127.594 77.25L153.094 101C161.26 108.5 167.26 116.667 171.094 125.5C175.094 134.167 177.094 143.333 177.094 153C177.094 175.333 167.51 194.333 148.344 210C130.344 224.667 109.844 232 86.8438 232ZM147.094 150C146.26 150.333 145.844 149.833 145.844 148.5C144.677 140.333 141.344 132 135.844 123.5C135.51 126 135.01 128.833 134.344 132C131.177 132.5 128.344 131.417 125.844 128.75C125.51 128.25 125.094 127.5 124.594 126.5C124.26 125.5 124.094 124.333 124.094 123V121.25C124.094 119.417 124.344 118.167 124.844 117.5C128.344 120 131.26 121 133.594 120.5C129.76 115 125.344 110 120.344 105.5C115.344 100.833 109.927 96.6667 104.094 93C91.9271 85.6667 81.1771 82 71.8438 82C61.8438 82 54.9271 86.1667 51.0938 94.5C52.9271 93.1667 54.7604 92.5 56.5938 92.5C58.5938 92.5 60.5104 93.0833 62.3438 94.25C65.6771 96.5833 67.2604 99.25 67.0938 102.25C64.9271 101.25 62.5938 100.75 60.0938 100.75C55.4271 100.75 52.0104 102.75 49.8438 106.75C48.0104 103.917 47.0938 101.5 47.0938 99.5C47.0938 97 48.2604 93.9167 50.5938 90.25C55.4271 82.25 62.9271 78.25 73.0938 78.25C88.2604 78.25 103.927 85.75 120.094 100.75C128.427 108.083 135.177 115.667 140.344 123.5C145.51 131.167 148.094 139.167 148.094 147.5V148.25C148.094 149.083 147.76 149.667 147.094 150Z" fill="#FF9900"/>
<path d="M157.094 68L156.795 70.9851L160.161 71.3217L160.093 67.94L157.094 68ZM154.094 49.75L151.152 49.1616L151.085 49.4942L151.095 49.8333L154.094 49.75ZM158.094 36.75L160.903 37.8034L160.908 37.7893L160.913 37.7752L158.094 36.75ZM166.594 17.5L165.645 14.6539L164.466 15.0469L163.91 16.1583L166.594 17.5ZM173.344 26.25L175.888 27.84L176.344 27.1104V26.25H173.344ZM168.344 34.5L170.888 36.09L170.909 36.0558L170.93 36.021L168.344 34.5ZM163.594 42.5L160.979 41.0292L160.954 41.073L160.931 41.1175L163.594 42.5ZM27.5938 213.75L25.5886 215.981L25.6071 215.998L25.6259 216.014L27.5938 213.75ZM32.5938 130.25L34.4151 132.634L34.4233 132.628L34.4315 132.621L32.5938 130.25ZM78.3438 114.5V111.5H78.3292L78.3146 111.5L78.3438 114.5ZM112.094 125.5L114.137 123.303L114.118 123.285L114.098 123.268L112.094 125.5ZM112.344 175.25L114.419 177.416L114.443 177.394L114.465 177.371L112.344 175.25ZM81.8438 184.25L82.175 187.232L82.3313 187.214L82.4848 187.181L81.8438 184.25ZM96.0938 179.25L94.7521 176.567L94.7308 176.577L94.7097 176.588L96.0938 179.25ZM107.094 170.75L104.885 168.72L104.85 168.758L104.816 168.798L107.094 170.75ZM105.844 127.25L103.807 129.452L103.839 129.482L103.872 129.511L105.844 127.25ZM39.8438 132.75L41.7704 135.05L41.7903 135.033L41.8098 135.016L39.8438 132.75ZM35.5938 210L37.7765 207.942L37.7463 207.91L37.7151 207.879L35.5938 210ZM139.094 208.25L137.134 205.979L137.119 205.991L137.105 206.004L139.094 208.25ZM145.344 113.25L147.625 111.302L147.562 111.228L147.494 111.158L145.344 113.25ZM118.094 85.25L115.938 87.3363L115.944 87.3423L118.094 85.25ZM107.094 70L104.327 71.1602L104.35 71.2149L104.375 71.2687L107.094 70ZM115.844 30.5L117.675 32.876L117.7 32.8571L117.724 32.8376L115.844 30.5ZM154.594 23L155.434 20.12L155.434 20.12L154.594 23ZM153.094 26.25L154.276 23.4926L154.256 23.4841L154.236 23.476L153.094 26.25ZM124.344 32.75L122.286 30.5672L122.254 30.5975L122.222 30.6287L124.344 32.75ZM127.594 77.25L125.408 79.3047L125.476 79.3774L125.549 79.4453L127.594 77.25ZM153.094 101L151.049 103.195L151.057 103.202L151.065 103.21L153.094 101ZM171.094 125.5L168.342 126.694L168.355 126.726L168.37 126.757L171.094 125.5ZM148.344 210L150.239 212.326L150.242 212.323L148.344 210ZM147.094 150L148.208 152.785L148.324 152.739L148.435 152.683L147.094 150ZM145.844 148.5H148.844V148.287L148.814 148.076L145.844 148.5ZM135.844 123.5L138.362 121.87L133.945 115.043L132.87 123.104L135.844 123.5ZM134.344 132L134.812 134.963L136.854 134.641L137.279 132.618L134.344 132ZM125.844 128.75L123.348 130.414L123.485 130.621L123.655 130.802L125.844 128.75ZM124.594 126.5L121.748 127.449L121.815 127.651L121.91 127.842L124.594 126.5ZM124.844 117.5L126.587 115.059L124.202 113.355L122.444 115.7L124.844 117.5ZM133.594 120.5L134.222 123.433L138.636 122.488L136.055 118.785L133.594 120.5ZM120.344 105.5L118.297 107.693L118.317 107.712L118.337 107.73L120.344 105.5ZM104.094 93L105.69 90.4601L105.666 90.4451L105.642 90.4306L104.094 93ZM51.0938 94.5L48.3683 93.2463L43.5673 103.683L52.8583 96.9262L51.0938 94.5ZM62.3438 94.25L64.0641 91.7923L64.0101 91.7544L63.9544 91.719L62.3438 94.25ZM67.0938 102.25L65.8366 104.974L69.8443 106.824L70.0891 102.416L67.0938 102.25ZM49.8438 106.75L47.325 108.38L50.0727 112.626L52.4816 108.179L49.8438 106.75ZM50.5938 90.25L53.1247 91.8606L53.1435 91.8312L53.1615 91.8013L50.5938 90.25ZM120.094 100.75L118.053 102.949L118.082 102.976L118.112 103.002L120.094 100.75ZM140.344 123.5L137.839 125.152L137.848 125.164L137.856 125.177L140.344 123.5ZM157.392 65.0149C158.135 65.0892 158.573 65.4814 158.717 65.6393C158.843 65.7771 158.825 65.8146 158.728 65.5883C158.536 65.1391 158.291 64.2682 158.054 62.8259C157.588 59.9898 157.258 55.6327 157.093 49.6667L151.095 49.8333C151.263 55.8673 151.6 60.5518 152.133 63.7991C152.396 65.3985 152.734 66.8296 153.209 67.9429C153.446 68.4979 153.782 69.1317 154.283 69.681C154.802 70.2504 155.636 70.8692 156.795 70.9851L157.392 65.0149ZM157.035 50.3383C157.656 47.2335 158.927 43.0719 160.903 37.8034L155.285 35.6966C153.26 41.0947 151.864 45.5998 151.152 49.1616L157.035 50.3383ZM160.913 37.7752C162.862 32.4163 165.643 26.1095 169.277 18.8416L163.91 16.1583C160.211 23.5572 157.326 30.0836 155.274 35.7248L160.913 37.7752ZM167.542 20.346C167.978 20.2009 168.312 20.108 168.557 20.0536C168.819 19.9953 168.896 20 168.844 20V14C167.829 14 166.689 14.3058 165.645 14.6539L167.542 20.346ZM168.844 20C169.052 20 169.103 20.0437 169.117 20.0529C169.153 20.0778 169.316 20.2034 169.521 20.6249C169.971 21.5501 170.344 23.3138 170.344 26.25H176.344C176.344 23.0195 175.966 20.1582 174.916 18.0001C174.372 16.88 173.597 15.8492 172.508 15.1033C171.397 14.3417 170.136 14 168.844 14V20ZM170.8 24.66C169.118 27.3504 167.438 30.1235 165.758 32.9789L170.93 36.021C172.583 33.2098 174.236 30.4829 175.888 27.84L170.8 24.66ZM165.8 32.91C164.109 35.6148 162.502 38.3212 160.979 41.0292L166.208 43.9708C167.685 41.3455 169.245 38.7186 170.888 36.09L165.8 32.91ZM160.931 41.1175C156.24 50.1527 153.916 59.1454 154.094 68.06L160.093 67.94C159.938 60.1879 161.948 52.1807 166.256 43.8824L160.931 41.1175ZM86.8438 229C61.7956 229 42.8409 223.026 29.5616 211.486L25.6259 216.014C40.3466 228.807 60.8919 235 86.8438 235V229ZM29.5989 211.519C18.7568 201.776 13.3438 189.432 13.3438 174.25H7.34375C7.34375 191.068 13.4307 205.057 25.5886 215.981L29.5989 211.519ZM13.3438 174.25C13.3438 157.225 20.2924 143.424 34.4151 132.634L30.7724 127.866C15.2284 139.742 7.34375 155.275 7.34375 174.25H13.3438ZM34.4315 132.621C47.237 122.697 61.849 117.66 78.3729 117.5L78.3146 111.5C60.5051 111.673 44.6172 117.136 30.756 127.879L34.4315 132.621ZM78.3438 117.5C92.1689 117.5 102.624 121.029 110.089 127.732L114.098 123.268C105.23 115.305 93.1852 111.5 78.3438 111.5V117.5ZM110.05 127.697C116.616 133.804 119.844 141.178 119.844 150H125.844C125.844 139.488 121.905 130.53 114.137 123.303L110.05 127.697ZM119.844 150C119.844 159.032 116.664 166.687 110.222 173.129L114.465 177.371C122.023 169.813 125.844 160.635 125.844 150H119.844ZM110.268 173.084C102.892 180.153 93.4987 183.75 81.8438 183.75V189.75C94.8555 189.75 105.796 185.68 114.419 177.416L110.268 173.084ZM81.8438 183.75C81.1813 183.75 81.0109 183.685 81.1049 183.716C81.1603 183.735 81.4984 183.85 81.8557 184.207C82.2867 184.638 82.5938 185.277 82.5938 186H76.5938C76.5938 188.243 78.4406 189.153 79.2076 189.409C80.0516 189.69 81.0062 189.75 81.8438 189.75V183.75ZM82.5938 186C82.5938 186.131 82.5672 186.356 82.4456 186.612C82.3217 186.874 82.1492 187.063 81.9981 187.181C81.8599 187.288 81.7727 187.311 81.8081 187.299C81.8433 187.287 81.9562 187.256 82.175 187.232L81.5125 181.268C80.5066 181.38 79.3129 181.668 78.3144 182.444C77.1653 183.338 76.5938 184.631 76.5938 186H82.5938ZM82.4848 187.181C88.0358 185.966 93.042 184.218 97.4778 181.912L94.7097 176.588C90.8121 178.615 86.3184 180.2 81.2027 181.319L82.4848 187.181ZM97.4354 181.933C102.108 179.597 106.098 176.521 109.372 172.702L104.816 168.798C102.089 171.979 98.7464 174.57 94.7521 176.567L97.4354 181.933ZM109.303 172.78C115.464 166.075 118.594 158.189 118.594 149.25H112.594C112.594 156.644 110.057 163.091 104.885 168.72L109.303 172.78ZM118.594 149.25C118.594 139.426 115.001 131.253 107.815 124.989L103.872 129.511C109.687 134.58 112.594 141.074 112.594 149.25H118.594ZM107.881 125.048C100.548 118.264 90.9307 115 79.3438 115V121C89.7568 121 97.8067 123.902 103.807 129.452L107.881 125.048ZM79.3438 115C63.6212 115 49.7564 120.177 37.8777 130.484L41.8098 135.016C52.5977 125.656 65.0664 121 79.3438 121V115ZM37.9171 130.45C24.9079 141.35 18.3438 155.357 18.3438 172.25H24.3438C24.3438 157.143 30.113 144.817 41.7704 135.05L37.9171 130.45ZM18.3438 172.25C18.3438 188.57 23.3164 201.965 33.4724 212.121L37.7151 207.879C28.8711 199.035 24.3438 187.264 24.3438 172.25H18.3438ZM33.411 212.058C45.1638 224.523 62.5847 230.5 85.0938 230.5V224.5C63.6028 224.5 48.0237 218.81 37.7765 207.942L33.411 212.058ZM85.0938 230.5C107.239 230.5 125.972 223.87 141.082 210.496L137.105 206.004C123.216 218.297 105.948 224.5 85.0938 224.5V230.5ZM141.054 210.521C157.545 196.287 165.844 178.209 165.844 156.5H159.844C159.844 176.457 152.31 192.88 137.134 205.979L141.054 210.521ZM165.844 156.5C165.844 140.492 159.666 125.407 147.625 111.302L143.062 115.198C154.355 128.427 159.844 142.175 159.844 156.5H165.844ZM147.494 111.158L120.244 83.1577L115.944 87.3423L143.194 115.342L147.494 111.158ZM120.25 83.1637C115.415 78.1679 111.969 73.3537 109.812 68.7313L104.375 71.2687C106.885 76.6463 110.773 81.9987 115.938 87.3363L120.25 83.1637ZM109.86 68.8398C107.817 63.9684 106.844 59.4469 106.844 55.25H100.844C100.844 60.3864 102.037 65.6982 104.327 71.1602L109.86 68.8398ZM106.844 55.25C106.844 45.8219 110.432 38.4596 117.675 32.876L114.012 28.124C105.256 34.8738 100.844 44.0114 100.844 55.25H106.844ZM117.724 32.8376C124.839 27.1148 133.086 24.25 142.594 24.25V18.25C131.768 18.25 122.182 21.5518 113.963 28.1624L117.724 32.8376ZM142.594 24.25C146.298 24.25 150.015 24.7896 153.754 25.88L155.434 20.12C151.172 18.8771 146.89 18.25 142.594 18.25V24.25ZM153.754 25.88C155.625 26.4258 156.757 26.9586 157.36 27.3856C157.96 27.8108 157.594 27.7892 157.594 27.25H163.594C163.594 25.0442 162.227 23.4808 160.828 22.4894C159.431 21.4998 157.563 20.7409 155.434 20.12L153.754 25.88ZM157.594 27.25C157.594 27.0459 157.681 26.3971 158.298 25.8828C158.811 25.4559 159.251 25.5 159.094 25.5V31.5C159.936 31.5 161.127 31.3357 162.139 30.4922C163.256 29.5613 163.594 28.2875 163.594 27.25H157.594ZM159.094 25.5C159.466 25.5 159.642 25.5885 159.3 25.4859C159.079 25.4197 158.743 25.3052 158.272 25.1285C157.336 24.7775 156.01 24.2361 154.276 23.4926L151.912 29.0074C153.677 29.7639 155.101 30.3475 156.165 30.7465C156.694 30.9448 157.171 31.1115 157.575 31.2328C157.858 31.3177 158.472 31.5 159.094 31.5V25.5ZM154.236 23.476C151.048 22.1634 147.744 21.5 144.344 21.5V27.5C146.943 27.5 149.473 28.0033 151.951 29.024L154.236 23.476ZM144.344 21.5C136.023 21.5 128.634 24.5821 122.286 30.5672L126.402 34.9328C131.721 29.9179 137.665 27.5 144.344 27.5V21.5ZM122.222 30.6287C116.051 36.8005 112.844 44.0433 112.844 52.25H118.844C118.844 45.7901 121.304 40.0328 126.465 34.8713L122.222 30.6287ZM112.844 52.25C112.844 61.593 117.249 70.6249 125.408 79.3047L129.78 75.1953C122.272 67.2084 118.844 59.5736 118.844 52.25H112.844ZM125.549 79.4453L151.049 103.195L155.138 98.8047L129.638 75.0547L125.549 79.4453ZM151.065 103.21C158.968 110.468 164.699 118.3 168.342 126.694L173.846 124.306C169.822 115.033 163.552 106.532 155.123 98.7904L151.065 103.21ZM168.37 126.757C172.186 135.025 174.094 143.762 174.094 153H180.094C180.094 142.905 178.002 133.309 173.818 124.243L168.37 126.757ZM174.094 153C174.094 174.328 165 192.51 146.445 207.677L150.242 212.323C170.02 196.156 180.094 176.339 180.094 153H174.094ZM146.449 207.674C128.978 221.909 109.146 229 86.8438 229V235C110.541 235 131.709 227.424 150.239 212.326L146.449 207.674ZM145.98 147.215C146.059 147.183 146.417 147.05 146.943 147.12C147.559 147.202 148.101 147.522 148.461 147.954C148.764 148.318 148.838 148.637 148.847 148.679C148.861 148.737 148.844 148.694 148.844 148.5H142.844C142.844 149.253 142.915 150.672 143.852 151.796C144.42 152.478 145.222 152.944 146.15 153.067C146.989 153.179 147.712 152.984 148.208 152.785L145.98 147.215ZM148.814 148.076C147.573 139.393 144.046 130.654 138.362 121.87L133.325 125.13C138.642 133.346 141.781 141.274 142.874 148.924L148.814 148.076ZM132.87 123.104C132.549 125.512 132.063 128.269 131.408 131.382L137.279 132.618C137.957 129.397 138.472 126.488 138.817 123.896L132.87 123.104ZM133.876 129.037C131.841 129.358 129.963 128.758 128.032 126.698L123.655 130.802C126.724 134.075 130.513 135.642 134.812 134.963L133.876 129.037ZM128.34 127.086C128.111 126.742 127.76 126.124 127.277 125.158L121.91 127.842C122.427 128.876 122.91 129.758 123.348 130.414L128.34 127.086ZM127.44 125.551C127.231 124.926 127.094 124.092 127.094 123H121.094C121.094 124.574 121.29 126.074 121.748 127.449L127.44 125.551ZM127.094 123V121.25H121.094V123H127.094ZM127.094 121.25C127.094 120.453 127.15 119.893 127.223 119.526C127.302 119.129 127.367 119.136 127.244 119.3L122.444 115.7C121.82 116.531 121.51 117.496 121.34 118.349C121.163 119.232 121.094 120.214 121.094 121.25H127.094ZM123.1 119.941C126.777 122.567 130.605 124.209 134.222 123.433L132.965 117.567C131.916 117.791 129.911 117.433 126.587 115.059L123.1 119.941ZM136.055 118.785C132.09 113.096 127.521 107.923 122.351 103.27L118.337 107.73C123.167 112.077 127.431 116.904 131.133 122.215L136.055 118.785ZM122.391 103.307C117.251 98.5096 111.683 94.2271 105.69 90.4601L102.497 95.5399C108.171 99.1063 113.437 103.157 118.297 107.693L122.391 103.307ZM105.642 90.4306C93.2338 82.9514 81.9368 79 71.8438 79V85C80.4174 85 90.6204 88.3819 102.545 95.5694L105.642 90.4306ZM71.8438 79C66.4276 79 61.6335 80.1304 57.6082 82.5553C53.5662 84.9902 50.5011 88.6096 48.3683 93.2463L53.8192 95.7537C55.5197 92.057 57.8296 89.4265 60.7043 87.6947C63.5957 85.9529 67.2599 85 71.8438 85V79ZM52.8583 96.9262C54.3019 95.8763 55.5314 95.5 56.5938 95.5V89.5C53.9895 89.5 51.5523 90.4571 49.3292 92.0738L52.8583 96.9262ZM56.5938 95.5C57.9739 95.5 59.3378 95.8931 60.7331 96.781L63.9544 91.719C61.683 90.2736 59.2136 89.5 56.5938 89.5V95.5ZM60.6234 96.7077C63.4427 98.6812 64.1879 100.473 64.0984 102.084L70.0891 102.416C70.333 98.0274 67.9115 94.4854 64.0641 91.7923L60.6234 96.7077ZM68.3509 99.5261C65.7713 98.3355 63.0067 97.75 60.0938 97.75V103.75C62.1808 103.75 64.0828 104.164 65.8366 104.974L68.3509 99.5261ZM60.0938 97.75C57.3237 97.75 54.7601 98.3472 52.5157 99.661C50.2673 100.977 48.5107 102.912 47.2059 105.321L52.4816 108.179C53.3435 106.588 54.3786 105.523 55.5468 104.839C56.7191 104.153 58.1972 103.75 60.0938 103.75V97.75ZM52.3625 105.12C50.6508 102.475 50.0938 100.648 50.0938 99.5H44.0938C44.0938 102.352 45.37 105.358 47.325 108.38L52.3625 105.12ZM50.0938 99.5C50.0938 97.8528 50.899 95.3581 53.1247 91.8606L48.0628 88.6394C45.6218 92.4752 44.0938 96.1472 44.0938 99.5H50.0938ZM53.1615 91.8013C57.3965 84.7917 63.8665 81.25 73.0938 81.25V75.25C61.9877 75.25 53.4577 79.7083 48.026 88.6986L53.1615 91.8013ZM73.0938 81.25C87.2211 81.25 102.192 88.2327 118.053 102.949L122.134 98.5508C105.662 83.2673 89.2997 75.25 73.0938 75.25V81.25ZM118.112 103.002C126.281 110.191 132.843 117.577 137.839 125.152L142.848 121.848C137.511 113.756 130.574 105.976 122.076 98.4979L118.112 103.002ZM137.856 125.177C142.727 132.404 145.094 139.829 145.094 147.5H151.094C151.094 138.505 148.294 129.929 142.832 121.823L137.856 125.177ZM145.094 147.5V148.25H151.094V147.5H145.094ZM145.094 148.25C145.094 148.269 145.091 148.083 145.239 147.824C145.398 147.546 145.616 147.385 145.752 147.317L148.435 152.683C149.238 152.282 149.956 151.662 150.448 150.801C150.93 149.959 151.094 149.065 151.094 148.25H145.094Z" fill="#002994" mask="url(#path-1-outside-1_296_4)"/>
</svg>
